<svg width="209" height="78" viewBox="0 0 209 78" xmlns="http://www.w3.org/2000/svg" xmlns:xlink="http://www.w3.org/1999/xlink"><title>Page 1</title><defs><path id="a" d="M69.7 0H0v71.6h69.7V0z"/></defs><g fill="none" fill-rule="evenodd"><path fill="#FFF100" d="M10.6 11v67H60l15.3-27 .3-40"/><path d="M91.2 27c1.3 0 2.4-1 2.6-1.7v-2s-1-.6-2.2-.6c-1.7 0-2.6.8-2.6 2 0 1.4.8 2.2 2.2 2.2m0-6.8c1.4 0 2.7.4 2.7.4 0-2-.6-2.8-2-2.8-1.5 0-3.4.3-4.3.6-.5 0-.8-.2-1-.7l-.2-1.6c0-.5.2-.7.5-.8.3-.2 2.7-.8 5-.8 4.7 0 5.7 2.4 5.7 6.5v7.8c0 .4-.3.7-.7.7h-1c-.4 0-.6 0-.7-.5l-.5-1c-.8 1-2.3 2-4.6 2-3 0-5-2-5-5.2 0-2.6 2-4.6 6-4.6M101.7 15.5c0-.5.3-.8.7-.8h1.2c.4 0 .5.2.6.5l.6 1.4c.5-.6 2-2.2 4.8-2.2 4.7 0 6 3.2 6 6.8v7.6c0 .4-.4.7-.8.7h-2.6c-.4 0-.7-.3-.7-.7v-7.6c0-2-.7-3-2.6-3-2 0-3 1.2-3.3 2.2v8.4c0 .6-.2.7-1 .7h-2.3c-.4 0-.7-.3-.7-.7V15.5zM129.6 19s-1.3-1-3-1c-2.6 0-3.8 2-3.8 4 0 2.2 1.2 4.2 3.5 4.2 2 0 3-1.2 3.3-2V19zm-3.6-4.6c1.5 0 3 .4 3.6.6V7.8c0-.3.3-.7.7-.7h2.6c.3 0 .6.5.6.8v21c0 .4-.3.7-.7.7h-1.3c-.4 0-.6-.3-.7-.7l-.4-1s-1.7 2-5 2c-4 0-7-3.2-7-7.7 0-4.2 3-7.6 7.4-7.6zM137.7 15.5c0-.5.4-.8.7-.8h1.2c.4 0 .5.2.7.5l.5 1.5c.5-.8 2-2.3 4.2-2.3 1.8 0 3.2.5 2.8 1.5l-1 2c0 .4-.5.5-.8.4-.4-.2-.7-.3-1.4-.3-1.6 0-2.6 1-3 1.6v9.2c0 .6-.2.7-.7.7h-2.6c-.3 0-.7-.3-.7-.7V15.5zM150 15.5c0-.5.3-.8.7-.8h2.6c.4 0 .7.3.7.8v7.8c0 2 .7 3 2.6 3 1.6 0 2.4-1.5 2.6-2.8v-8c0-.6.2-.8.8-.8h2.5c.4 0 .7.3.7.8v13.3c0 .4-.3.7-.7.7h-1c-.5 0-.8-.2-.8-.5l-.5-1.3c-.7.8-2.3 2.2-4.6 2.2-4.6 0-5.6-3-5.6-6.7v-7.8zM167 28.5c-.3 0-.5-.4-.3-.8l1-2c0-.2.5-.4.8 0 .7.3 1.8.8 3.3.8 1.2 0 1.7-.4 1.7-1 0-.7-1-1.3-2.8-2-3-1.2-4.2-2.5-4.2-4.8 0-2.2 1.7-4.3 5.4-4.3 2 0 3.5.6 4.3 1 .3.4.5.8.3 1l-.8 1.8c-.3.4-.7.5-1 .3-.7-.3-1.7-.7-3-.7-1 0-1.4.5-1.4 1 0 .6.8 1 2.2 1.5 2.8 1.2 5 2.2 5 5.2 0 2.3-2 4.4-5.8 4.4-2.5 0-4-1-5-1.5M180.7 7.8c0-.3.3-.7.7-.7h2.6c.4 0 .7.5.7.8v12.5l5-5c.4-.3.6-.6 1-.6h3c.7 0 1 .7.6 1l-6 6 6.2 6.8c.4.4.2 1-.4 1h-3c-.3 0-.6 0-.7-.3l-5.6-6.6v6.2c0 .4-.3.7-.7.7h-2.6c-.4 0-.7-.3-.7-.7v-21zM202 27c1.4 0 2.5-1 2.7-1.7v-2s-1-.6-2.2-.6c-1.7 0-2.6.8-2.6 2 0 1.4.7 2.2 2 2.2m0-6.8c1.5 0 2.8.4 2.8.4 0-2-.5-2.8-2-2.8-1.4 0-3.4.3-4.2.6-.5 0-.8-.2-1-.7l-.2-1.6c0-.5.2-.7.5-.8.2-.2 2.6-.8 5-.8 4.6 0 5.6 2.4 5.6 6.5v7.8c0 .4-.3.7-.7.7h-1.2c-.3 0-.5 0-.7-.5l-.3-1c-.8 1-2.3 2-4.6 2-3 0-5-2-5-5.2 0-2.6 2.2-4.6 6-4.6" fill="#231F20"/><g transform="translate(0 .394)"><mask id="b" fill="#fff"><use xlink:href="#a"/></mask><path d="M4.7 67h45.8l14.3-25.2.2-37H4.7V67zm48.6 4.6H0V0h69.7l-.3 43-16 28.6z" fill="#231F20" mask="url(#b)"/></g><path fill="#231F20" d="M21 44.3h28.6l-7 12H21V43.8M21.5 31.3h6V14.6h-6M38.6 31.3h6V14.6h-6"/><g fill="#231F20"><path d="M88.3 44c.8 0 1.4-.6 1.4-1.4 0-.8-.6-1.4-1.4-1.4-.8 0-1.4.6-1.4 1.4 0 .8.5 1.4 1.3 1.4zM87 49s0 .3-.2.3h-1.6L85 49v-9.4s0-.3.2-.3h.7l.2.3.2.6s.8-1 2.2-1c2 0 3.3 1.5 3.3 3.4 0 2.3-1.6 3.5-3.4 3.5-.6 0-1.3-.2-1.5-.3V49zM93.3 39.6c0-.2 0-.3.3-.3H95c.3 0 .5 0 .5.3v6c0 .2-.2.3-.4.3h-1.4c-.2 0-.3-.2-.3-.4v-6zm-.2-2.4c0-.7.7-1.3 1.3-1.3.7 0 1.3.5 1.3 1.2s-.6 1.2-1.3 1.2c-.6 0-1.2-.5-1.2-1.2zM96.7 45.4l2-2.8-2-2.8c0-.2 0-.5.3-.5H99l1.2 1.8 1-1.6h2.2c.3 0 .4.2.3.4l-2 2.7 2 3s0 .4-.3.4h-1.8l-.2-.2-1.2-1.8-1.2 1.8h-2c-.3 0-.4-.2-.3-.4M108.7 41.7c0-.4-.4-.8-1-.8-.5 0-1 .3-1 .7h2zm-1-2.5c1.8 0 3.2 1.2 3.2 3v.5c0 .2-.3.3-.4.3h-4c0 .5.4 1 1.3 1 .3 0 1 0 1.2-.3h.4l.7 1v.4c-.6.7-1.4 1-2.5 1-2 0-3.4-1.4-3.4-3.4 0-1.8 1.4-3.4 3.4-3.4zM112.2 36.2s.2-.3.4-.3h1.5c.3 0 .4 0 .4.2v9.4c0 .2 0 .3-.3.3h-1.4c-.2 0-.4-.2-.4-.4v-9.4zM116 39.6c0-.2.3-.3.4-.3h1.6c.2 0 .3 0 .3.3V43c0 .6.2 1 1 1 .5 0 .8-.4.8-1v-3.4c0-.2.3-.3.5-.3h1.5s.3 0 .3.3v6c0 .2-.2.3-.3.3h-.7l-.3-.3-.2-.6c-.4.5-1 1-2 1-2 0-2.7-1.2-2.7-3v-3.4zM124 39.6c0-.2.2-.3.3-.3h.7s.2 0 .3.2l.2.7c.4-.4 1-1 2-1 2.2 0 3 1.4 3 3.2v3.2c0 .2-.3.3-.4.3h-1.5c-.2 0-.3-.2-.3-.4v-3.2c0-.6-.2-1.2-1-1.2-.6 0-1 .5-1 1v3.4s0 .3-.3.3h-1.7s-.3-.2-.3-.4v-6zM135.3 44c.8 0 1.4-.6 1.4-1.4 0-.8-.6-1.4-1.4-1.4-.8 0-1.5.6-1.5 1.4 0 .8.7 1.4 1.5 1.4m-.4-4.8c.6 0 1.3.2 1.5.3v-3.3s0-.3.3-.3h1.5c.2 0 .4 0 .4.2v9.4c0 .2-.2.3-.4.3h-.6c-.2 0-.3-.2-.4-.4V45s-1 1-2.4 1c-2 0-3.3-1.5-3.3-3.4 0-2.3 1.5-3.4 3.2-3.4M143.8 44c.8 0 1.4-.6 1.4-1.4 0-.8-.6-1.4-1.4-1.4-.8 0-1.4.6-1.4 1.4 0 .8.6 1.4 1.4 1.4zm-1.2 5s0 .3-.3.3h-1.6l-.3-.3v-9.4l.3-.3h.7l.3.3.2.6s.7-1 2-1c2 0 3.4 1.5 3.4 3.4 0 2.3-1.5 3.5-3.3 3.5-.5 0-1.2-.2-1.4-.3V49zM151.3 44.5c.4 0 .7-.4.7-.8s-.3-.7-.7-.7c-.4 0-.8.3-.8.7 0 .4.4.8.8.8m-.5-2.8c.8 0 1.3.3 1.3.3 0-.7 0-1-.8-1-.4 0-1.2 0-1.7.2-.2 0-.3 0-.4-.3v-1.2c0-.2 0-.4.2-.4l2.3-.2c2 0 2.7.8 2.7 2.8v3.6c0 .2 0 .3-.3.3h-.8s-.2 0-.3-.3l-.3-.5c-.4.4-1 1-2 1-1.3 0-2.3-1-2.3-2.3 0-1.4 1-2.3 2.4-2.3M159.3 44c.8 0 1.4-.6 1.4-1.4 0-.8-.6-1.4-1.4-1.4-.8 0-1.4.6-1.4 1.4 0 .8.5 1.4 1.3 1.4zm-1.2 5s0 .3-.2.3h-1.5c-.2 0-.4-.2-.4-.3v-9.4s0-.3.3-.3h.6l.2.3.2.6s.8-1 2.3-1c1.8 0 3.2 1.5 3.2 3.4 0 2.3-1.6 3.5-3.3 3.5-.7 0-1.4-.2-1.6-.3V49zM164.3 39.6c0-.2 0-.3.3-.3h1.6s.3 0 .3.3v6c0 .2-.2.3-.3.3h-1.6c-.2 0-.3-.2-.3-.4v-6zm-.2-2.4c0-.7.7-1.3 1.4-1.3s1.2.5 1.2 1.2-.5 1.2-1.2 1.2-1.3-.5-1.3-1.2zM172.2 41.7c0-.4-.4-.8-1-.8-.5 0-1 .3-1 .7h2zm-1-2.5c1.8 0 3.2 1.2 3.2 3v.5c0 .2-.2.3-.3.3h-4c0 .5.5 1 1.4 1 .4 0 1 0 1.2-.3h.4l.8 1v.4c-.6.7-1.4 1-2.5 1-2 0-3.5-1.4-3.5-3.4 0-1.8 1.5-3.4 3.5-3.4zM175.7 39.6c0-.2 0-.3.3-.3h.7c.2 0 .3 0 .3.2l.3.7c.3-.5.8-1 1.7-1 .6 0 1 0 1.3.3v.4l-.7 1.2s-.2.2-.3 0h-.5c-.5 0-1 .4-1 1v3.4c0 .2 0 .3-.3.3H176c-.2 0-.3-.2-.3-.4v-6zM182 43c.8 0 1.6.6 1.6 1.5 0 .8-.8 1.6-1.6 1.6-1 0-1.6-.7-1.6-1.5 0-1 .7-1.6 1.6-1.6"/></g></g></svg>