<?xml version="1.0" encoding="UTF-8"?>
<svg width="209px" height="78px" viewBox="0 0 209 78" version="1.1" xmlns="http://www.w3.org/2000/svg" xmlns:xlink="http://www.w3.org/1999/xlink">
    <!-- Generator: Sketch 47.1 (45422) - http://www.bohemiancoding.com/sketch -->
    <title>Page 1</title>
    <desc>Created with Sketch.</desc>
    <defs>
        <polygon id="path-1" points="69.6825255 0.132760364 0 0.132760364 0 71.6042471 69.6825255 71.6042471 69.6825255 0.132760364"></polygon>
    </defs>
    <g id="Page-1" stroke="none" stroke-width="1" fill="none" fill-rule="evenodd">
        <g id="Desktop-HD-Copy-6" transform="translate(-43.000000, -47.000000)">
            <g id="Page-1" transform="translate(43.000000, 47.000000)">
                <polygon id="Fill-1" fill="#FFF100" points="10.5847471 11.0391899 10.5847471 77.8677602 60.1486198 77.8677602 75.3452962 51.0051596 75.5793599 11.0391899"></polygon>
                <g id="Group-21" transform="translate(0.000000, 0.394238)">
                    <path d="M91.1608441,26.5154362 C92.4813829,26.5154362 93.6412212,25.4900004 93.8351098,24.9469185 L93.8351098,22.7711207 C93.8351098,22.7711207 92.835972,22.3217335 91.6446923,22.3217335 C89.9363763,22.3217335 89.001868,23.1233432 89.001868,24.4350681 C89.001868,25.68433 89.7756758,26.5154362 91.1608441,26.5154362 M91.0647732,19.7937132 C92.5792006,19.7937132 93.9311808,20.2101339 93.9311808,20.2101339 C93.997557,18.3206253 93.4490793,17.4253209 91.8700224,17.4253209 C90.5162954,17.4253209 88.551208,17.7133452 87.6813293,17.9684028 C87.197481,18.1297658 86.9075215,17.7775434 86.8428919,17.3281561 L86.521491,15.6642087 C86.3922319,15.1211268 86.6821914,14.8643341 87.0035924,14.7671693 C87.3267401,14.640508 89.6778581,14.0332279 92.0953524,14.0332279 C96.7347055,14.0332279 97.7024019,16.4311167 97.7024019,20.4669266 L97.7024019,28.4344413 C97.7024019,28.8196303 97.381001,29.1406212 96.9932237,29.1406212 L95.898015,29.1406212 C95.6394968,29.1406212 95.4473549,29.0434564 95.2534663,28.6287709 L94.8342476,27.6363017 C93.9643689,28.4674079 92.4813829,29.4928437 90.1617063,29.4928437 C87.197481,29.4928437 85.1345759,27.6033351 85.1345759,24.4350681 C85.1345759,21.8098831 87.293552,19.7937132 91.0647732,19.7937132" id="Fill-2" fill="#231F20"></path>
                    <path d="M101.694936,15.0560611 C101.694936,14.6413755 102.049525,14.3533513 102.404114,14.3533513 L103.628582,14.3533513 C103.983171,14.3533513 104.143871,14.5129792 104.241689,14.8010034 L104.78842,16.1769266 C105.335151,15.5679114 106.722066,14.0323604 109.59022,14.0323604 C114.325644,14.0323604 115.551859,17.2006273 115.551859,20.7870499 L115.551859,28.4353088 C115.551859,28.8204979 115.195523,29.1397537 114.842681,29.1397537 L112.231298,29.1397537 C111.845267,29.1397537 111.52212,28.8204979 111.52212,28.4353088 L111.52212,20.7870499 C111.52212,18.8645747 110.750059,17.6812461 108.945672,17.6812461 C107.012026,17.6812461 106.077517,18.9617395 105.722928,19.9854402 L105.722928,28.4353088 C105.722928,28.9801258 105.497598,29.1397537 104.78842,29.1397537 L102.404114,29.1397537 C102.049525,29.1397537 101.694936,28.8204979 101.694936,28.4353088 L101.694936,15.0560611 Z" id="Fill-4" fill="#231F20"></path>
                    <path d="M129.564417,18.5126993 C129.564417,18.5126993 128.33995,17.6815931 126.470933,17.6815931 C124.021997,17.6815931 122.764341,19.6647964 122.764341,21.7451644 C122.764341,23.8272675 123.957368,25.8434374 126.277044,25.8434374 C128.212437,25.8434374 129.24127,24.6254071 129.564417,23.7943009 L129.564417,18.5126993 Z M125.987085,14.0327074 C127.470071,14.0327074 128.886681,14.3831947 129.564417,14.6417225 L129.564417,7.4376457 C129.564417,7.08542326 129.91726,6.73493589 130.271849,6.73493589 L132.881485,6.73493589 C133.271009,6.73493589 133.59241,7.08542326 133.59241,7.4376457 L133.59241,28.4356558 C133.59241,28.8191098 133.271009,29.1401007 132.881485,29.1401007 L131.691952,29.1401007 C131.337363,29.1401007 131.112033,28.8520764 130.982774,28.4356558 L130.596743,27.2835587 C130.596743,27.2835587 128.886681,29.4923232 125.730313,29.4923232 C121.667386,29.4923232 118.608836,26.2268914 118.608836,21.7451644 C118.608836,17.4248004 121.539874,14.0327074 125.987085,14.0327074 L125.987085,14.0327074 Z" id="Fill-6" fill="#231F20"></path>
                    <path d="M137.71298,15.0560611 C137.71298,14.6413755 138.067569,14.3533513 138.420412,14.3533513 L139.613438,14.3533513 C139.968027,14.3533513 140.128728,14.5129792 140.257987,14.832235 L140.806464,16.2723563 C141.320007,15.5349448 142.706922,14.0323604 144.995158,14.0323604 C146.768103,14.0323604 148.217901,14.5129792 147.796936,15.4724817 L146.832733,17.6482795 C146.670285,18.0005019 146.317443,18.1288983 145.962854,17.9692704 C145.608265,17.8096425 145.251929,17.6812461 144.575939,17.6812461 C142.963694,17.6812461 141.997744,18.7066819 141.740973,19.2167972 L141.740973,28.4353088 C141.740973,28.9801258 141.386384,29.1397537 140.902535,29.1397537 L138.420412,29.1397537 C138.067569,29.1397537 137.71298,28.8204979 137.71298,28.4353088 L137.71298,15.0560611 Z" id="Fill-8" fill="#231F20"></path>
                    <path d="M150.018794,15.0560611 C150.018794,14.6413755 150.341942,14.3533513 150.727973,14.3533513 L153.337609,14.3533513 C153.723639,14.3533513 154.048534,14.6413755 154.048534,15.0560611 L154.048534,22.8986495 C154.048534,24.8523563 154.722777,25.8430904 156.560352,25.8430904 C158.204039,25.8430904 158.977847,24.3700024 159.203177,23.0912441 L159.203177,15.0560611 C159.203177,14.4800125 159.395318,14.3533513 160.008426,14.3533513 L162.521991,14.3533513 C162.908021,14.3533513 163.229422,14.6413755 163.229422,15.0560611 L163.229422,28.4353088 C163.229422,28.8204979 162.908021,29.1397537 162.521991,29.1397537 L161.362153,29.1397537 C161.007564,29.1397537 160.749045,28.8846961 160.652974,28.5966718 L160.233756,27.3474099 C159.459948,28.1472845 157.914079,29.4919761 155.625844,29.4919761 C151.017932,29.4919761 150.018794,26.6447001 150.018794,22.8986495 L150.018794,15.0560611 Z" id="Fill-10" fill="#231F20"></path>
                    <path d="M166.899332,28.147111 C166.707191,28.0204497 166.544743,27.6682273 166.707191,27.3472364 L167.67314,25.4282313 C167.833841,25.0742738 168.18843,24.9458775 168.543019,25.1714386 C169.219009,25.5861242 170.282776,26.1309412 171.830392,26.1309412 C172.958789,26.1309412 173.474078,25.7162556 173.474078,25.0742738 C173.474078,24.4027956 172.635641,23.7937804 170.668807,23.0268724 C167.804146,21.9389735 166.513302,20.5925468 166.513302,18.3525509 C166.513302,16.1125549 168.221618,14.0321869 171.86358,14.0321869 C174.053998,14.0321869 175.472354,14.6082354 176.277603,15.1200857 C176.599004,15.3768785 176.792893,15.7603325 176.599004,16.1437865 L175.762314,17.8424356 C175.535237,18.192923 175.149206,18.2571211 174.827805,18.1304599 C174.118627,17.809469 173.088048,17.3930483 171.86358,17.3930483 C170.864442,17.3930483 170.443477,17.8736671 170.443477,18.3525509 C170.443477,19.0257642 171.185843,19.3762516 172.572758,19.9523001 C175.439166,21.1043972 177.502071,22.129833 177.502071,25.0742738 C177.502071,27.4114346 175.503795,29.4918026 171.765762,29.4918026 C169.283639,29.4918026 167.73777,28.7231596 166.899332,28.147111" id="Fill-12" fill="#231F20"></path>
                    <path d="M180.656691,7.43781921 C180.656691,7.08559676 181.011281,6.7351094 181.364123,6.7351094 L183.973759,6.7351094 C184.363283,6.7351094 184.684684,7.08559676 184.684684,7.43781921 L184.684684,19.9529941 L189.807885,14.7997889 C190.066404,14.5759628 190.323175,14.3521367 190.742394,14.3521367 L193.772995,14.3521367 C194.382609,14.3521367 194.607939,15.023615 194.255097,15.4400356 L188.358088,21.202256 L194.545056,28.0836069 C194.932834,28.5000275 194.707504,29.1402742 194.092649,29.1402742 L190.936282,29.1402742 C190.677764,29.1402742 190.387805,29.0118779 190.29348,28.8522499 L184.684684,22.1947252 L184.684684,28.4358293 C184.684684,28.8192833 184.363283,29.1402742 183.973759,29.1402742 L181.364123,29.1402742 C181.011281,29.1402742 180.656691,28.8192833 180.656691,28.4358293 L180.656691,7.43781921 Z" id="Fill-14" fill="#231F20"></path>
                    <path d="M202.049245,26.5154362 C203.37153,26.5154362 204.531369,25.4900004 204.723511,24.9469185 L204.723511,22.7711207 C204.723511,22.7711207 203.72612,22.3217335 202.533093,22.3217335 C200.824777,22.3217335 199.892016,23.1233432 199.892016,24.4350681 C199.892016,25.68433 200.664077,26.5154362 202.049245,26.5154362 M201.953174,19.7937132 C203.467601,19.7937132 204.821328,20.2101339 204.821328,20.2101339 C204.885958,18.3206253 204.339227,17.4253209 202.758423,17.4253209 C201.404696,17.4253209 199.439609,17.7133452 198.56973,17.9684028 C198.085882,18.1297658 197.795922,17.7775434 197.731293,17.3281561 L197.409892,15.6642087 C197.280633,15.1211268 197.572339,14.8643341 197.89374,14.7671693 C198.215141,14.640508 200.568006,14.0332279 202.983753,14.0332279 C207.623106,14.0332279 208.59255,16.4311167 208.59255,20.4669266 L208.59255,28.4344413 C208.59255,28.8196303 208.269402,29.1406212 207.883371,29.1406212 L206.788163,29.1406212 C206.527898,29.1406212 206.335756,29.0434564 206.143614,28.6287709 L205.724395,27.6363017 C204.85277,28.4674079 203.37153,29.4928437 201.051854,29.4928437 C198.085882,29.4928437 196.024723,27.6033351 196.024723,24.4350681 C196.024723,21.8098831 198.1837,19.7937132 201.953174,19.7937132" id="Fill-16" fill="#231F20"></path>
                    <g id="Group-20">
                        <mask id="mask-2" fill="white">
                            <use xlink:href="#path-1"></use>
                        </mask>
                        <g id="Clip-19"></g>
                        <path d="M4.67568544,66.957687 L50.5329665,66.957687 L64.7619465,41.804146 L64.9785428,4.77567685 L4.67568544,4.77567685 L4.67568544,66.957687 Z M53.270115,71.6042471 L-0.000349348882,71.6042471 L-0.000349348882,0.130851769 L69.6825255,0.130851769 L69.4309943,43.0308518 L53.270115,71.6042471 Z" id="Fill-18" fill="#231F20" mask="url(#mask-2)"></path>
                    </g>
                </g>
                <polyline id="Fill-22" fill="#231F20" points="21.0409338 44.2527256 49.5635233 44.2527256 42.5485978 56.3289238 21.0409338 56.3289238 21.0409338 43.8432453"></polyline>
                <polygon id="Fill-23" fill="#231F20" points="21.4535149 31.3039527 27.4710494 31.3039527 27.4710494 14.5586382 21.4535149 14.5586382"></polygon>
                <polygon id="Fill-24" fill="#231F20" points="38.5751036 31.3039527 44.5926381 31.3039527 44.5926381 14.5586382 38.5751036 14.5586382"></polygon>
                <g id="Group-55" transform="translate(84.453061, 35.700608)" fill="#231F20">
                    <path d="M3.86670311,8.31753407 C4.65623158,8.31753407 5.27283236,7.70504874 5.27283236,6.90864429 C5.27283236,6.12438544 4.65623158,5.49801941 3.86670311,5.49801941 C3.04922672,5.49801941 2.46057386,6.12438544 2.46057386,6.90864429 C2.46057386,7.70504874 3.04922672,8.31753407 3.86670311,8.31753407 L3.86670311,8.31753407 Z M2.64747551,13.2746746 C2.64747551,13.4464481 2.50424247,13.5887252 2.33306152,13.5887252 L0.783699223,13.5887252 C0.610771526,13.5887252 0.467538484,13.4464481 0.467538484,13.2746746 L0.467538484,3.9312368 C0.467538484,3.77507907 0.610771526,3.61718625 0.783699223,3.61718625 L1.42824791,3.61718625 C1.58720165,3.61718625 1.71646074,3.77507907 1.77235656,3.94511749 L1.95925821,4.48646431 C1.95925821,4.48646431 2.73481273,3.4749092 4.1968378,3.4749092 C6.06061409,3.4749092 7.45102264,5.01393043 7.45102264,6.8947636 C7.45102264,9.21630859 5.94532896,10.354525 4.18286385,10.354525 C3.53656842,10.354525 2.86232507,10.1272287 2.64747551,9.96933589 L2.64747551,13.2746746 Z" id="Fill-25"></path>
                    <path d="M8.82029559,3.93071628 C8.82029559,3.74679717 8.96527537,3.61666572 9.13645633,3.61666572 L10.6840719,3.61666572 C10.8569996,3.61666572 11.0002326,3.74679717 11.0002326,3.93071628 L11.0002326,9.88553124 C11.0002326,10.0555697 10.8569996,10.1978467 10.6840719,10.1978467 L9.13645633,10.1978467 C8.96527537,10.1978467 8.82029559,10.0555697 8.82029559,9.88553124 L8.82029559,3.93071628 Z M8.66308859,1.48077492 C8.66308859,0.797151062 9.20807285,0.228042872 9.89629015,0.228042872 C10.5845074,0.228042872 11.1434657,0.797151062 11.1434657,1.48077492 C11.1434657,2.1505181 10.5845074,2.7057456 9.89629015,2.7057456 C9.20807285,2.7057456 8.66308859,2.1505181 8.66308859,1.48077492 L8.66308859,1.48077492 Z" id="Fill-27"></path>
                    <path d="M12.2584126,9.70022406 L14.3370385,6.85121294 L12.3160552,4.11671749 C12.1571014,3.90156684 12.2863605,3.61701274 12.5745734,3.61701274 L14.394681,3.61701274 C14.5239401,3.61701274 14.6392252,3.67427058 14.6671732,3.7454091 L15.7291938,5.42670738 L15.7868363,5.42670738 L16.8610841,3.7454091 C16.8890321,3.67427058 16.9606486,3.61701274 17.1335763,3.61701274 L18.9536839,3.61701274 C19.2418968,3.61701274 19.3711559,3.90156684 19.2122021,4.11671749 L17.1912188,6.82345157 L19.2279228,9.70022406 C19.3711559,9.91363964 19.2418968,10.1981937 18.9694046,10.1981937 L17.1772449,10.1981937 C17.0619597,10.1981937 16.9763693,10.1270552 16.9327007,10.0559167 L15.7868363,8.33297634 L15.7291938,8.33297634 C15.3990591,8.78930394 14.8104062,9.6707276 14.5239401,10.0697974 C14.4802715,10.1409359 14.3807071,10.1981937 14.251448,10.1981937 L12.5029568,10.1981937 C12.228718,10.1981937 12.1151796,9.91363964 12.2584126,9.70022406" id="Fill-29"></path>
                    <path d="M24.2536558,6.01143134 C24.2239612,5.56898443 23.8519046,5.19767604 23.2929464,5.19767604 C22.7479622,5.19767604 22.3898796,5.56898443 22.3025423,6.01143134 L24.2536558,6.01143134 Z M23.3488422,3.47473569 C25.0274636,3.47473569 26.4894887,4.74308352 26.4894887,6.55277816 C26.4894887,6.65167806 26.4755147,6.87897432 26.4615408,6.9796093 C26.4475668,7.14964772 26.2903598,7.2641634 26.14538,7.2641634 L22.0597449,7.2641634 C22.0597449,7.77774884 22.5331126,8.40411486 23.4361795,8.40411486 C23.8658786,8.40411486 24.4108628,8.19069929 24.6973289,7.99116441 C24.840562,7.86103296 25.0134897,7.86103296 25.1130541,7.99116441 L25.84494,8.94372659 C25.9445044,9.07385804 25.9741991,9.27339292 25.830966,9.41566997 C25.2562871,9.99865885 24.4248368,10.3543515 23.3785369,10.3543515 C21.3994755,10.3543515 19.9077557,8.94372659 19.9077557,6.90847078 C19.9077557,5.05539899 21.3855015,3.47473569 23.3488422,3.47473569 L23.3488422,3.47473569 Z" id="Fill-31"></path>
                    <path d="M27.7880185,0.541919919 C27.7880185,0.384027098 27.9312515,0.227869363 28.1041792,0.227869363 L29.6517948,0.227869363 C29.8247225,0.227869363 29.9679555,0.384027098 29.9679555,0.541919919 L29.9679555,9.88535774 C29.9679555,10.0553962 29.8247225,10.1976732 29.6517948,10.1976732 L28.1041792,10.1976732 C27.9312515,10.1976732 27.7880185,10.0553962 27.7880185,9.88535774 L27.7880185,0.541919919 Z" id="Fill-33"></path>
                    <path d="M31.6705073,3.93071628 C31.6705073,3.74679717 31.8137403,3.61666572 31.9709473,3.61666572 L33.5342836,3.61666572 C33.708958,3.61666572 33.8521911,3.74679717 33.8521911,3.93071628 L33.8521911,7.17879717 C33.8521911,7.91967887 34.0670406,8.31701355 34.7377905,8.31701355 C35.3840859,8.31701355 35.6426041,7.87630172 35.6426041,7.29157776 L35.6426041,3.93071628 C35.6426041,3.66177796 35.8434797,3.61666572 36.0006867,3.61666572 L37.5063804,3.61666572 C37.6793081,3.61666572 37.8225411,3.74679717 37.8225411,3.93071628 L37.8225411,9.88553124 C37.8225411,10.0555697 37.6793081,10.1978467 37.5063804,10.1978467 L36.846111,10.1978467 C36.7028779,10.1978467 36.5893396,10.0850661 36.5334437,9.96881537 L36.3028735,9.35806512 C35.9011223,9.77101557 35.198931,10.3540044 34.2102737,10.3540044 C32.2731341,10.3540044 31.6705073,9.08739171 31.6705073,7.22043923 L31.6705073,3.93071628 Z" id="Fill-35"></path>
                    <path d="M39.5640453,3.93071628 C39.5640453,3.74679717 39.7090251,3.61666572 39.880206,3.61666572 L40.5247547,3.61666572 C40.6260659,3.61666572 40.755325,3.68780425 40.8269415,3.81793569 L41.069739,4.47206309 C41.4278216,4.07299333 41.9291372,3.47438868 43.1343909,3.47438868 C45.2007895,3.47438868 45.9029808,4.9283907 45.9029808,6.73635025 L45.9029808,9.88553124 C45.9029808,10.0555697 45.7597477,10.1978467 45.600794,10.1978467 L44.0392045,10.1978467 C43.8505561,10.1978467 43.7230437,10.0555697 43.7230437,9.88553124 L43.7230437,6.70858888 C43.7230437,6.08222285 43.5081942,5.49749889 42.7623343,5.49749889 C42.1020649,5.49749889 41.759703,5.95382649 41.759703,6.62356967 L41.759703,9.88553124 C41.759703,10.0278083 41.6880865,10.1978467 41.4575162,10.1978467 L39.880206,10.1978467 C39.7090251,10.1978467 39.5640453,10.0555697 39.5640453,9.88553124 L39.5640453,3.93071628 Z" id="Fill-37"></path>
                    <path d="M50.7985813,8.31753407 C51.6160577,8.31753407 52.2047106,7.70504874 52.2047106,6.8947636 C52.2047106,6.09662406 51.6160577,5.49801941 50.7985813,5.49801941 C50.0090528,5.49801941 49.3924521,6.09662406 49.3924521,6.8947636 C49.3924521,7.70504874 50.0090528,8.31753407 50.7985813,8.31753407 M50.4824206,3.4749092 C51.1269693,3.4749092 51.8029594,3.67444408 52.0178089,3.84621759 L52.0178089,0.542613953 C52.0178089,0.384721132 52.161042,0.228563397 52.3322229,0.228563397 L53.8815852,0.228563397 C54.0545129,0.228563397 54.1977459,0.384721132 54.1977459,0.542613953 L54.1977459,9.88431668 C54.1977459,10.0560902 54.0545129,10.1983672 53.8815852,10.1983672 L53.2370365,10.1983672 C53.0798295,10.1983672 52.9488237,10.0560902 52.8911811,9.87217108 L52.7060262,9.32908918 C52.7060262,9.32908918 51.9304717,10.354525 50.4701934,10.354525 C48.6046703,10.354525 47.1985411,8.78774237 47.1985411,6.90864429 C47.1985411,4.58709929 48.7199555,3.4749092 50.4824206,3.4749092" id="Fill-39"></path>
                    <path d="M59.366712,8.31753407 C60.1544937,8.31753407 60.7710945,7.70504874 60.7710945,6.90864429 C60.7710945,6.12438544 60.1544937,5.49801941 59.366712,5.49801941 C58.5474889,5.49801941 57.9605828,6.12438544 57.9605828,6.90864429 C57.9605828,7.70504874 58.5474889,8.31753407 59.366712,8.31753407 L59.366712,8.31753407 Z M58.1474844,13.2746746 C58.1474844,13.4464481 58.0042514,13.5887252 57.8313237,13.5887252 L56.2819614,13.5887252 C56.1107804,13.5887252 55.9675474,13.4464481 55.9675474,13.2746746 L55.9675474,3.9312368 C55.9675474,3.77507907 56.1107804,3.61718625 56.2819614,3.61718625 L56.9282568,3.61718625 C57.0854638,3.61718625 57.2147229,3.77507907 57.2723655,3.94511749 L57.4592671,4.48646431 C57.4592671,4.48646431 58.2348216,3.4749092 59.6951,3.4749092 C61.560623,3.4749092 62.9510315,5.01393043 62.9510315,6.8947636 C62.9510315,9.21630859 61.4435911,10.354525 59.681126,10.354525 C59.0365773,10.354525 58.362334,10.1272287 58.1474844,9.96933589 L58.1474844,13.2746746 Z" id="Fill-41"></path>
                    <path d="M66.8006816,8.75980748 C67.2024328,8.75980748 67.5465414,8.43361132 67.5465414,8.03280647 C67.5465414,7.64761739 67.2024328,7.30754055 66.8006816,7.30754055 C66.3989303,7.30754055 66.0705424,7.64761739 66.0705424,8.03280647 C66.0705424,8.43361132 66.3989303,8.75980748 66.8006816,8.75980748 M66.3709824,5.99581557 C67.1168423,5.99581557 67.6758005,6.28036967 67.6758005,6.28036967 C67.6758005,5.64012295 67.5325675,5.26881456 66.7587597,5.26881456 C66.2993659,5.26881456 65.5255581,5.36944954 65.0941123,5.4978459 C64.8355941,5.58286512 64.7220557,5.39894601 64.692361,5.15603397 L64.5351541,4.14447887 C64.4914854,3.85992477 64.6504392,3.7332635 64.7936722,3.68815126 C64.9508792,3.63262851 66.1107175,3.47473569 67.0015572,3.47473569 C69.0522351,3.47473569 69.7684003,4.30237169 69.7684003,6.25260829 L69.7684003,9.88414317 C69.7684003,10.0559167 69.6111933,10.1981937 69.4539863,10.1981937 L68.7517951,10.1981937 C68.6504839,10.1981937 68.5351988,10.1686973 68.4496083,9.98477816 L68.233012,9.54233124 C67.8347542,9.88414317 67.2740493,10.3543515 66.2277494,10.3543515 C64.9229313,10.3543515 63.9325272,9.50068918 63.9325272,8.19069929 C63.9325272,6.92235147 64.8652887,5.99581557 66.3709824,5.99581557" id="Fill-43"></path>
                    <path d="M74.8828679,8.31753407 C75.6706497,8.31753407 76.2872505,7.70504874 76.2872505,6.90864429 C76.2872505,6.12438544 75.6706497,5.49801941 74.8828679,5.49801941 C74.0636448,5.49801941 73.4767387,6.12438544 73.4767387,6.90864429 C73.4767387,7.70504874 74.0636448,8.31753407 74.8828679,8.31753407 L74.8828679,8.31753407 Z M73.6636403,13.2746746 C73.6636403,13.4464481 73.5204073,13.5887252 73.3474796,13.5887252 L71.7981173,13.5887252 C71.6269364,13.5887252 71.4837033,13.4464481 71.4837033,13.2746746 L71.4837033,3.9312368 C71.4837033,3.77507907 71.6269364,3.61718625 71.7981173,3.61718625 L72.4444128,3.61718625 C72.6016197,3.61718625 72.7308788,3.77507907 72.7885214,3.94511749 L72.9754231,4.48646431 C72.9754231,4.48646431 73.7509776,3.4749092 75.2112559,3.4749092 C77.0767789,3.4749092 78.4671875,5.01393043 78.4671875,6.8947636 C78.4671875,9.21630859 76.9597471,10.354525 75.1972819,10.354525 C74.5527333,10.354525 73.8784899,10.1272287 73.6636403,9.96933589 L73.6636403,13.2746746 Z" id="Fill-45"></path>
                    <path d="M79.8347137,3.93071628 C79.8347137,3.74679717 79.9796935,3.61666572 80.1508744,3.61666572 L81.69849,3.61666572 C81.8714177,3.61666572 82.0146507,3.74679717 82.0146507,3.93071628 L82.0146507,9.88553124 C82.0146507,10.0555697 81.8714177,10.1978467 81.69849,10.1978467 L80.1508744,10.1978467 C79.9796935,10.1978467 79.8347137,10.0555697 79.8347137,9.88553124 L79.8347137,3.93071628 Z M79.6775067,1.48077492 C79.6775067,0.797151062 80.2224909,0.228042872 80.9107082,0.228042872 C81.5989255,0.228042872 82.1578838,0.797151062 82.1578838,1.48077492 C82.1578838,2.1505181 81.5989255,2.7057456 80.9107082,2.7057456 C80.2224909,2.7057456 79.6775067,2.1505181 79.6775067,1.48077492 L79.6775067,1.48077492 Z" id="Fill-47"></path>
                    <path d="M87.7343653,6.01143134 C87.7029239,5.56898443 87.3326141,5.19767604 86.7719091,5.19767604 C86.2269249,5.19767604 85.8688423,5.56898443 85.7832518,6.01143134 L87.7343653,6.01143134 Z M86.8295517,3.47473569 C88.5064263,3.47473569 89.9684514,4.74308352 89.9684514,6.55277816 C89.9684514,6.65167806 89.9544774,6.87897432 89.9422502,6.9796093 C89.9282763,7.14964772 89.7693225,7.2641634 89.6260895,7.2641634 L85.5387076,7.2641634 C85.5387076,7.77774884 86.0120753,8.40411486 86.9151422,8.40411486 C87.3448413,8.40411486 87.8915723,8.19069929 88.1780384,7.99116441 C88.3212714,7.86103296 88.4941991,7.86103296 88.5937635,7.99116441 L89.3239027,8.94372659 C89.4252139,9.07385804 89.4531618,9.27339292 89.3099287,9.41566997 C88.7369966,9.99865885 87.9055462,10.3543515 86.8574996,10.3543515 C84.8784382,10.3543515 83.3884652,8.94372659 83.3884652,6.90847078 C83.3884652,5.05539899 84.8644642,3.47473569 86.8295517,3.47473569 L86.8295517,3.47473569 Z" id="Fill-49"></path>
                    <path d="M91.2533566,3.93071628 C91.2533566,3.74679717 91.3965896,3.61666572 91.5695173,3.61666572 L92.2559879,3.61666572 C92.4289156,3.61666572 92.514506,3.70342002 92.5581747,3.81793569 L92.8586147,4.5449367 C93.1450808,4.01747058 93.6463964,3.47438868 94.5075414,3.47438868 C95.1101682,3.47438868 95.5538413,3.6322815 95.8001323,3.81793569 C95.9136707,3.90121982 95.9136707,4.04523195 95.8420541,4.17362831 L95.1817848,5.46973751 C95.1101682,5.59813387 94.9966299,5.69876886 94.8097282,5.62763033 C94.6944431,5.5825181 94.4516456,5.52699535 94.3084126,5.52699535 C93.8053502,5.52699535 93.4315469,5.88268797 93.4315469,6.43791547 L93.4315469,9.88553124 C93.4315469,10.0850661 93.3180085,10.1978467 93.0734643,10.1978467 L91.5695173,10.1978467 C91.3965896,10.1978467 91.2533566,10.0555697 91.2533566,9.88553124 L91.2533566,3.93071628 Z" id="Fill-51"></path>
                    <path d="M97.5290599,7.22130677 C98.3744842,7.22130677 99.1203441,7.93269201 99.1203441,8.80197007 C99.1203441,9.64348675 98.3744842,10.354872 97.5290599,10.354872 C96.6836356,10.354872 95.9657237,9.64348675 95.9657237,8.80197007 C95.9657237,7.93269201 96.6836356,7.22130677 97.5290599,7.22130677" id="Fill-53"></path>
                </g>
            </g>
        </g>
    </g>
</svg>